<svg id="Capa_1" data-name="Capa 1" xmlns="http://www.w3.org/2000/svg" viewBox="0 0 138.07 173.21"><defs><style>.cls-1{fill:#93d0d5;}.cls-2{fill:#1ca2bf;}</style></defs><title>Logotipo</title><g id="_Grupo_" data-name="&lt;Grupo&gt;"><path class="cls-1" d="M121.84,66.22c4.16,1.14,7.44,4.36,7.44,11.36,0,13.22-7.65,17.75-13.18,17.75a9.12,9.12,0,0,1-6.93-3.4,47.87,47.87,0,0,1-81.23,1,8.87,8.87,0,0,1-6,2.43c-5.51,0-13.16-4.54-13.16-17.75,0-7,3.28-10.21,7.44-11.36a8,8,0,0,1,4.15,0c0-.8,0-1.59.07-2.37H34.32V44.2h67.63V63.83h14.12q0,1.45,0,2.94A8.19,8.19,0,0,1,121.84,66.22ZM98.9,84.55a5.74,5.74,0,1,0-5.75,5.75A5.74,5.74,0,0,0,98.9,84.55ZM50,84.55a5.74,5.74,0,1,0-5.75,5.75A5.74,5.74,0,0,0,50,84.55Z"/><path class="cls-2" d="M116.06,63.83H101.94V44.2H34.32V63.83H20.45c.92-27,13.83-46.34,47.79-46.34C102.39,17.49,115.18,35.16,116.06,63.83Z"/><path class="cls-2" d="M93.15,78.8a5.75,5.75,0,1,1-5.73,5.75A5.74,5.74,0,0,1,93.15,78.8Z"/><path class="cls-2" d="M44.23,78.8a5.75,5.75,0,1,1-5.73,5.75A5.74,5.74,0,0,1,44.23,78.8Z"/></g><path class="cls-2" d="M69,142.58a49.75,49.75,0,0,1-24.9-6.67,2.07,2.07,0,1,1,2.07-3.58,45.69,45.69,0,0,0,45.64,0,2.07,2.07,0,1,1,2.07,3.58A49.73,49.73,0,0,1,69,142.58Z"/><path class="cls-2" d="M69,129.44a33.86,33.86,0,0,1-16.94-4.54,2.07,2.07,0,1,1,2.07-3.58,29.77,29.77,0,0,0,29.73,0A2.07,2.07,0,0,1,86,124.91,33.85,33.85,0,0,1,69,129.44Z"/><path class="cls-2" d="M69,155.72a65.65,65.65,0,0,1-32.83-8.79,2.07,2.07,0,0,1,2.07-3.58,61.59,61.59,0,0,0,61.52,0,2.07,2.07,0,1,1,2.07,3.58A65.62,65.62,0,0,1,69,155.72Z"/></svg>